<svg width="42" height="42" viewBox="0 0 42 42" fill="none" xmlns="http://www.w3.org/2000/svg">
<path d="M19.4621 0.680383C20.3254 -0.111682 21.6512 -0.111682 22.5145 0.680383L25.5972 3.50861C26.0795 3.9511 26.7301 4.16249 27.3803 4.08799L31.5366 3.61185C32.7007 3.47851 33.7732 4.25777 34.0061 5.40601L34.8376 9.50605C34.9677 10.1475 35.3698 10.7009 35.9397 11.0229L39.5821 13.0807C40.6022 13.657 41.0118 14.9179 40.5253 15.9837L38.7881 19.7895C38.5163 20.3849 38.5163 21.069 38.7881 21.6644L40.5253 25.4701C41.0118 26.536 40.6022 27.7969 39.5821 28.3732L35.9397 30.431C35.3698 30.7529 34.9677 31.3064 34.8376 31.9478L34.0061 36.0479C33.7732 37.1961 32.7007 37.9754 31.5366 37.842L27.3803 37.3659C26.7301 37.2914 26.0795 37.5028 25.5972 37.9453L22.5145 40.7735C21.6512 41.5656 20.3254 41.5656 19.4621 40.7735L16.3794 37.9453C15.8971 37.5028 15.2466 37.2914 14.5963 37.3659L10.44 37.842C9.27596 37.9754 8.20339 37.1961 7.97051 36.0479L7.13897 31.9478C7.00888 31.3064 6.60679 30.7529 6.03693 30.431L2.39452 28.3732C1.37445 27.7969 0.964761 26.536 1.45128 25.4701L3.18849 21.6644C3.46028 21.069 3.46028 20.3849 3.18849 19.7895L1.45128 15.9837C0.964761 14.9179 1.37445 13.657 2.39452 13.0807L6.03693 11.0229C6.60679 10.7009 7.00888 10.1475 7.13897 9.50605L7.97051 5.40601C8.20339 4.25777 9.27596 3.47851 10.44 3.61185L14.5963 4.08799C15.2466 4.16249 15.8971 3.9511 16.3794 3.50861L19.4621 0.680383Z" fill="#009C20"/>
<path d="M14.0059 19.4547L17.3748 24.1819L26.7331 16.5456" stroke="white" stroke-width="2.90016" stroke-linecap="round" stroke-linejoin="round"/>
</svg>
