<svg width="63" height="63" xmlns="http://www.w3.org/2000/svg"><g fill="none" fill-rule="evenodd"><path d="M31.674 11.27a4.824 4.824 0 100-9.648 4.824 4.824 0 000 9.648zm-25.084 0a4.824 4.824 0 100-9.648 4.824 4.824 0 000 9.648z" stroke="#0B0B0C" stroke-width="2.4"/><path d="M43.245 28.634v-7.718a6.754 6.754 0 00-6.753-6.753h-9.648a6.754 6.754 0 00-6.753 6.753v7.718h1.93v-7.718a4.824 4.824 0 014.823-4.824h9.648a4.824 4.824 0 014.824 4.824v7.718h1.93z" stroke="#0B0B0C" stroke-width=".8" fill="#0B0B0C" fill-rule="nonzero"/><path fill="#0B0B0C" fill-rule="nonzero" d="M50.002 32.194H13.34v4.216H50z"/><path d="M20.095 60.472l-.007 1.93h1.937c2.067 0 3.479-.942 4.24-2.464.257-.515.42-1.058.51-1.599.055-.328.074-.59.074-.762V40.212h-1.93v17.365c0 .07-.011.23-.047.445a3.74 3.74 0 01-.333 1.054c-.445.89-1.205 1.396-2.514 1.396h-1.937v.967l.001.962a.966.966 0 00.899-1.332l-6.754-16.401a.965.965 0 00-.892-.597H6.589a3.859 3.859 0 01-3.86-3.86v-22.19a1.93 1.93 0 011.93-1.929h1.93a5.788 5.788 0 015.788 5.789v6.753h1.93v-6.753a7.718 7.718 0 00-7.718-7.718h-1.93A3.86 3.86 0 00.8 18.022v22.19A5.788 5.788 0 006.589 46h6.107l6.507 15.804.892.597v-1.93z" stroke="#0B0B0C" stroke-width=".8" fill="#0B0B0C" fill-rule="nonzero" stroke-linecap="round" stroke-linejoin="round"/><path d="M56.755 11.27a4.824 4.824 0 100-9.648 4.824 4.824 0 000 9.648z" stroke="#0B0B0C" stroke-width="2.4"/><path d="M41.317 60.472c-1.31 0-2.069-.507-2.514-1.396a3.743 3.743 0 01-.333-1.054 3.069 3.069 0 01-.047-.445V40.212h-1.93v17.365c0 .171.019.434.074.762a5.67 5.67 0 00.51 1.6c.761 1.521 2.173 2.462 4.24 2.462h1.93a.965.965 0 00.892-.597L50.646 46h6.107a5.788 5.788 0 005.789-5.788v-22.19a3.86 3.86 0 00-3.86-3.86h-1.929a7.718 7.718 0 00-7.718 7.719v6.753h1.93v-6.753a5.788 5.788 0 015.788-5.789h1.93a1.93 1.93 0 011.93 1.93v22.19a3.859 3.859 0 01-3.86 3.859H50a.965.965 0 00-.892.597L42.6 60.472h-1.283zM30.706 40.213v22.19h1.93v-22.19z" stroke="#0B0B0C" stroke-width=".8" fill="#0B0B0C" fill-rule="nonzero"/><path fill="#0B0B0C" fill-rule="nonzero" d="M29.625 22.24h4.088v-4.087h-4.088zm0 6.617h4.088v-4.088h-4.088z"/><path d="M-8-7h79v79H-8z"/></g></svg>
