<svg width="804" height="875" viewBox="0 0 804 875" fill="none" xmlns="http://www.w3.org/2000/svg">
<g opacity="0.6" filter="url(#filter0_f_5514_5144)">
<ellipse cx="657.729" cy="261" rx="193.958" ry="133" transform="rotate(-22.4282 657.729 261)" fill="#3444DA"/>
</g>
<g opacity="0.6" filter="url(#filter1_f_5514_5144)">
<ellipse cx="657.729" cy="261" rx="193.958" ry="133" transform="rotate(-22.4282 657.729 261)" fill="#3444DA"/>
</g>
<g opacity="0.4">
<path d="M610.877 292.983L610.561 294.45L610.563 294.45L610.877 292.983ZM646.402 277.275L645.493 278.468L646.725 279.406L647.623 278.146L646.402 277.275ZM667.427 247.792L668.648 248.663L669.456 247.53L668.387 246.639L667.427 247.792ZM614.26 225.8H612.76V227.154L614.108 227.292L614.26 225.8ZM614.26 210.575H615.76V209.075H614.26V210.575ZM589.127 210.575V209.075H587.627V210.575H589.127ZM589.127 225.8L589.298 227.29L590.627 227.138V225.8H589.127ZM598.552 329.233L598.902 327.775L598.891 327.772L598.881 327.77L598.552 329.233ZM552.394 341.317L553.346 340.157L552.196 339.213L551.242 340.355L552.394 341.317ZM529.194 369.108L528.042 368.147L527.121 369.25L528.184 370.217L529.194 369.108ZM589.127 395.933H590.627V394.611L589.315 394.445L589.127 395.933ZM589.127 411.883H587.627V413.383H589.127V411.883ZM614.26 411.883V413.383H615.76V411.883H614.26ZM614.26 396.658L614.14 395.163L612.76 395.274V396.658H614.26ZM673.519 342.767C673.519 326.699 667.307 315.789 656.273 307.952C645.367 300.206 629.811 295.507 611.191 291.517L610.563 294.45C629.16 298.435 644.175 303.039 654.536 310.398C664.768 317.665 670.519 327.659 670.519 342.767H673.519ZM611.193 291.517C598.826 288.85 590.892 286.711 586.041 284.055C583.653 282.747 582.114 281.365 581.158 279.823C580.208 278.29 579.752 276.468 579.752 274.133H576.752C576.752 276.874 577.293 279.281 578.608 281.403C579.918 283.516 581.914 285.215 584.6 286.686C589.9 289.589 598.278 291.8 610.561 294.45L611.193 291.517ZM579.752 274.133C579.752 270.53 581.375 267.343 584.548 265.011C587.754 262.654 592.608 261.133 599.035 261.133V258.133C592.171 258.133 586.634 259.754 582.771 262.593C578.875 265.457 576.752 269.52 576.752 274.133H579.752ZM599.035 261.133C614.116 261.133 630.479 267.029 645.493 278.468L647.311 276.082C631.875 264.321 614.889 258.133 599.035 258.133V261.133ZM647.623 278.146L668.648 248.663L666.206 246.921L645.181 276.404L647.623 278.146ZM668.387 246.639C653.659 234.365 635.978 226.513 614.413 224.308L614.108 227.292C635.077 229.437 652.196 237.051 666.467 248.944L668.387 246.639ZM615.76 225.8V210.575H612.76V225.8H615.76ZM614.26 209.075H589.127V212.075H614.26V209.075ZM587.627 210.575V225.8H590.627V210.575H587.627ZM588.957 224.31C572.858 226.153 559.414 232.189 549.979 241.53C540.53 250.885 535.185 263.478 535.185 278.242H538.185C538.185 264.247 543.233 252.431 552.09 243.662C560.961 234.878 573.738 229.072 589.298 227.29L588.957 224.31ZM535.185 278.242C535.185 295.415 542.018 306.63 553.447 314.489C564.74 322.255 580.473 326.712 598.224 330.697L598.881 327.77C581.106 323.779 565.906 319.416 555.147 312.017C544.524 304.712 538.185 294.418 538.185 278.242H535.185ZM598.202 330.692C610.364 333.611 618.128 335.564 622.887 337.973C625.226 339.156 626.701 340.387 627.61 341.778C628.51 343.156 628.952 344.84 628.952 347.117H631.952C631.952 344.439 631.427 342.136 630.122 340.138C628.826 338.153 626.857 336.62 624.242 335.296C619.093 332.69 610.907 330.656 598.902 327.775L598.202 330.692ZM628.952 347.117C628.952 351.078 627.215 354.427 623.684 356.845C620.094 359.302 614.569 360.842 607.01 360.842V363.842C614.919 363.842 621.114 362.239 625.379 359.32C629.702 356.36 631.952 352.097 631.952 347.117H628.952ZM607.01 360.842C587.124 360.842 569.325 353.275 553.346 340.157L551.442 342.476C567.846 355.942 586.297 363.842 607.01 363.842V360.842ZM551.242 340.355L528.042 368.147L530.345 370.07L553.545 342.278L551.242 340.355ZM528.184 370.217C544.623 385.184 565.701 394.486 588.939 397.422L589.315 394.445C566.637 391.581 546.148 382.516 530.204 367.999L528.184 370.217ZM587.627 395.933V411.883H590.627V395.933H587.627ZM589.127 413.383H614.26V410.383H589.127V413.383ZM615.76 411.883V396.658H612.76V411.883H615.76ZM614.381 398.153C632.626 396.684 647.416 390.855 657.664 381.323C667.936 371.77 673.519 358.61 673.519 342.767H670.519C670.519 357.856 665.227 370.193 655.621 379.127C645.992 388.083 631.903 393.733 614.14 395.163L614.381 398.153Z" fill="url(#paint0_linear_5514_5144)"/>
<path d="M610.877 292.983L610.561 294.45L610.563 294.45L610.877 292.983ZM646.402 277.275L645.493 278.468L646.725 279.406L647.623 278.146L646.402 277.275ZM667.427 247.792L668.648 248.663L669.456 247.53L668.387 246.639L667.427 247.792ZM614.26 225.8H612.76V227.154L614.108 227.292L614.26 225.8ZM614.26 210.575H615.76V209.075H614.26V210.575ZM589.127 210.575V209.075H587.627V210.575H589.127ZM589.127 225.8L589.298 227.29L590.627 227.138V225.8H589.127ZM598.552 329.233L598.902 327.775L598.891 327.772L598.881 327.77L598.552 329.233ZM552.394 341.317L553.346 340.157L552.196 339.213L551.242 340.355L552.394 341.317ZM529.194 369.108L528.042 368.147L527.121 369.25L528.184 370.217L529.194 369.108ZM589.127 395.933H590.627V394.611L589.315 394.445L589.127 395.933ZM589.127 411.883H587.627V413.383H589.127V411.883ZM614.26 411.883V413.383H615.76V411.883H614.26ZM614.26 396.658L614.14 395.163L612.76 395.274V396.658H614.26ZM673.519 342.767C673.519 326.699 667.307 315.789 656.273 307.952C645.367 300.206 629.811 295.507 611.191 291.517L610.563 294.45C629.16 298.435 644.175 303.039 654.536 310.398C664.768 317.665 670.519 327.659 670.519 342.767H673.519ZM611.193 291.517C598.826 288.85 590.892 286.711 586.041 284.055C583.653 282.747 582.114 281.365 581.158 279.823C580.208 278.29 579.752 276.468 579.752 274.133H576.752C576.752 276.874 577.293 279.281 578.608 281.403C579.918 283.516 581.914 285.215 584.6 286.686C589.9 289.589 598.278 291.8 610.561 294.45L611.193 291.517ZM579.752 274.133C579.752 270.53 581.375 267.343 584.548 265.011C587.754 262.654 592.608 261.133 599.035 261.133V258.133C592.171 258.133 586.634 259.754 582.771 262.593C578.875 265.457 576.752 269.52 576.752 274.133H579.752ZM599.035 261.133C614.116 261.133 630.479 267.029 645.493 278.468L647.311 276.082C631.875 264.321 614.889 258.133 599.035 258.133V261.133ZM647.623 278.146L668.648 248.663L666.206 246.921L645.181 276.404L647.623 278.146ZM668.387 246.639C653.659 234.365 635.978 226.513 614.413 224.308L614.108 227.292C635.077 229.437 652.196 237.051 666.467 248.944L668.387 246.639ZM615.76 225.8V210.575H612.76V225.8H615.76ZM614.26 209.075H589.127V212.075H614.26V209.075ZM587.627 210.575V225.8H590.627V210.575H587.627ZM588.957 224.31C572.858 226.153 559.414 232.189 549.979 241.53C540.53 250.885 535.185 263.478 535.185 278.242H538.185C538.185 264.247 543.233 252.431 552.09 243.662C560.961 234.878 573.738 229.072 589.298 227.29L588.957 224.31ZM535.185 278.242C535.185 295.415 542.018 306.63 553.447 314.489C564.74 322.255 580.473 326.712 598.224 330.697L598.881 327.77C581.106 323.779 565.906 319.416 555.147 312.017C544.524 304.712 538.185 294.418 538.185 278.242H535.185ZM598.202 330.692C610.364 333.611 618.128 335.564 622.887 337.973C625.226 339.156 626.701 340.387 627.61 341.778C628.51 343.156 628.952 344.84 628.952 347.117H631.952C631.952 344.439 631.427 342.136 630.122 340.138C628.826 338.153 626.857 336.62 624.242 335.296C619.093 332.69 610.907 330.656 598.902 327.775L598.202 330.692ZM628.952 347.117C628.952 351.078 627.215 354.427 623.684 356.845C620.094 359.302 614.569 360.842 607.01 360.842V363.842C614.919 363.842 621.114 362.239 625.379 359.32C629.702 356.36 631.952 352.097 631.952 347.117H628.952ZM607.01 360.842C587.124 360.842 569.325 353.275 553.346 340.157L551.442 342.476C567.846 355.942 586.297 363.842 607.01 363.842V360.842ZM551.242 340.355L528.042 368.147L530.345 370.07L553.545 342.278L551.242 340.355ZM528.184 370.217C544.623 385.184 565.701 394.486 588.939 397.422L589.315 394.445C566.637 391.581 546.148 382.516 530.204 367.999L528.184 370.217ZM587.627 395.933V411.883H590.627V395.933H587.627ZM589.127 413.383H614.26V410.383H589.127V413.383ZM615.76 411.883V396.658H612.76V411.883H615.76ZM614.381 398.153C632.626 396.684 647.416 390.855 657.664 381.323C667.936 371.77 673.519 358.61 673.519 342.767H670.519C670.519 357.856 665.227 370.193 655.621 379.127C645.992 388.083 631.903 393.733 614.14 395.163L614.381 398.153Z" fill="url(#paint1_linear_5514_5144)"/>
</g>
<defs>
<filter id="filter0_f_5514_5144" x="0.94577" y="-352.92" width="1313.57" height="1227.84" filterUnits="userSpaceOnUse" color-interpolation-filters="sRGB">
<feFlood flood-opacity="0" result="BackgroundImageFix"/>
<feBlend mode="normal" in="SourceGraphic" in2="BackgroundImageFix" result="shape"/>
<feGaussianBlur stdDeviation="235.203" result="effect1_foregroundBlur_5514_5144"/>
</filter>
<filter id="filter1_f_5514_5144" x="0.94577" y="-352.92" width="1313.57" height="1227.84" filterUnits="userSpaceOnUse" color-interpolation-filters="sRGB">
<feFlood flood-opacity="0" result="BackgroundImageFix"/>
<feBlend mode="normal" in="SourceGraphic" in2="BackgroundImageFix" result="shape"/>
<feGaussianBlur stdDeviation="235.203" result="effect1_foregroundBlur_5514_5144"/>
</filter>
<linearGradient id="paint0_linear_5514_5144" x1="546.481" y1="141.75" x2="702.213" y2="163.647" gradientUnits="userSpaceOnUse">
<stop stop-color="#3279F4"/>
<stop offset="1" stop-color="#9ED3F0"/>
</linearGradient>
<linearGradient id="paint1_linear_5514_5144" x1="603" y1="225" x2="602.5" y2="417" gradientUnits="userSpaceOnUse">
<stop stop-color="#0C1033" stop-opacity="0"/>
<stop offset="0.588542" stop-color="#0C1033" stop-opacity="0.789773"/>
<stop offset="0.916667" stop-color="#0C1033"/>
</linearGradient>
</defs>
</svg>
