<svg width="16" height="71" viewBox="0 0 16 71" fill="none" xmlns="http://www.w3.org/2000/svg">
<path opacity="0.6" d="M7.29289 70.7071C7.68342 71.0976 8.31658 71.0976 8.70711 70.7071L15.0711 64.3431C15.4616 63.9526 15.4616 63.3195 15.0711 62.9289C14.6805 62.5384 14.0474 62.5384 13.6569 62.9289L8 68.5858L2.34315 62.9289C1.95262 62.5384 1.31946 62.5384 0.928932 62.9289C0.538408 63.3195 0.538408 63.9526 0.928932 64.3431L7.29289 70.7071ZM9 0.999996C9 0.447712 8.55228 -3.48175e-06 8 -3.45707e-06C7.44771 -3.43239e-06 7 0.447712 7 0.999997L9 0.999996ZM9 70L9 0.999996L7 0.999997L7 70L9 70Z" fill="url(#paint0_linear_5314_3414)"/>
<defs>
<linearGradient id="paint0_linear_5314_3414" x1="7.963" y1="72.5506" x2="8.1107" y2="-0.571458" gradientUnits="userSpaceOnUse">
<stop stop-color="white"/>
<stop offset="1" stop-color="white" stop-opacity="0"/>
</linearGradient>
</defs>
</svg>
