<svg width="50" height="63" xmlns="http://www.w3.org/2000/svg"><g fill="none" fill-rule="evenodd"><path d="M22.47 4.38h-5.583c-.514 0-.93.553-.93 1.234 0 .682.416 1.234.93 1.234h5.583c.513 0 .93-.552.93-1.234 0-.681-.417-1.233-.93-1.233zm-9.09.766a1.242 1.242 0 00-2.378.632 1.242 1.242 0 002.262.52c.229-.34.272-.773.115-1.152zm4.25 52.356a3.184 3.184 0 003.193-3.175 3.184 3.184 0 00-3.192-3.175 3.184 3.184 0 00-3.193 3.175 3.184 3.184 0 003.193 3.175z" fill="#0B0B0C" fill-rule="nonzero"/><path d="M36.625 3.98A3.902 3.902 0 0032.73.274H4.14l-.2.005a3.903 3.903 0 00-3.7 3.902v54.696l.005.2a3.902 3.902 0 003.894 3.707h28.59l.202-.006a3.903 3.903 0 003.698-3.901V46.539h-2.6v12.338l-.006.133a1.3 1.3 0 01-1.293 1.169H4.14l-.133-.007a1.301 1.301 0 01-1.167-1.295V4.18l.007-.133a1.3 1.3 0 011.293-1.17h28.59a1.3 1.3 0 011.3 1.303v10.487h2.6V4.18l-.005-.2z" fill="#0B0B0C" fill-rule="nonzero"/><path d="M36.423 24.946c-2.855 0-5.17 2.302-5.17 5.14 0 2.84 2.315 5.141 5.17 5.141 2.854 0 5.168-2.301 5.168-5.14 0-2.84-2.314-5.14-5.168-5.14zm0 7.711a2.577 2.577 0 01-2.585-2.57c0-1.42 1.157-2.57 2.585-2.57a2.577 2.577 0 012.584 2.57c0 1.42-1.157 2.57-2.584 2.57z" fill="#0B0B0C" fill-rule="nonzero"/><path d="M48.82 26.779c-2.785-.693-2.33-.466-2.558-.972 1.34-2.105 1.97-2.865 1.072-3.744-2.894-2.878-3.336-3.704-4.474-3.024-2.465 1.465-1.996 1.332-2.505 1.105-.603-2.37-.643-3.397-1.902-3.397-4.1 0-4.997-.266-5.359 1.013-.696 2.77-.468 2.318-.977 2.544-2.117-1.332-2.88-1.958-3.765-1.065-2.893 2.877-3.724 3.33-3.04 4.45 1.486 2.464 1.34 1.971 1.111 2.49-2.384.6-3.415.64-3.415 1.892 0 4.077-.268 4.97 1.018 5.33 2.786.692 2.33.466 2.558.972-1.34 2.105-1.969 2.864-1.072 3.743 2.894 2.878 3.35 3.704 4.475 3.025 2.464-1.466 1.996-1.333 2.505-1.106.602 2.371.643 3.397 1.902 3.397 4.085 0 4.996.267 5.358-1.012.697-2.771.469-2.318.978-2.545 2.116 1.332 2.88 1.958 3.764 1.066 2.894-2.878 3.724-3.33 3.04-4.45-1.473-2.451-1.339-1.985-1.111-2.491 2.385-.6 3.416-.64 3.416-1.892 0-4.077.268-5.01-1.018-5.329zm-1.66 4.25c-2.237.56-2.773.546-3.041 1.412-.79 2.531-1.34 1.24.59 4.49l-1.34 1.332c-1.996-1.199-2.358-1.572-3.161-1.146-2.358 1.226-1.862 0-2.773 3.584h-1.956c-.563-2.225-.55-2.758-1.42-3.024-2.545-.786-1.233-1.332-4.514.586l-1.34-1.332c1.206-1.985 1.58-2.345 1.152-3.144-1.232-2.345 0-1.852-3.603-2.758V29.11c2.196-.546 2.76-.532 3.04-1.412.79-2.531 1.34-1.225-.589-4.49l1.34-1.332c1.982 1.186 2.357 1.572 3.16 1.146 2.359-1.239 1.863 0 2.774-3.584h1.929c.562 2.225.549 2.758 1.42 3.025 2.545.786 1.232 1.332 4.514-.587l1.34 1.333c-1.166 1.931-1.581 2.318-1.152 3.144 1.232 2.345 0 1.852 3.603 2.757l.027 1.919z" fill="#0B0B0C" fill-rule="nonzero"/><path stroke="#0B0B0C" stroke-width="4" d="M8.885 14.665v33.928"/><path d="M-18-8h78.4v78.4H-18z"/></g></svg>
