<svg width="155" height="32" viewBox="0 0 155 32" fill="none" xmlns="http://www.w3.org/2000/svg">
<g clip-path="url(#clip0_2900_65680)">
<path d="M112.184 10.6772H107.935V23.1981H105.791V10.6772H101.563V8.85938H112.184V10.6772Z" fill="#242220"/>
<path d="M112.933 14.2295H114.689V15.4754C115.016 14.7197 115.997 13.9844 116.997 13.9844C117.671 13.9844 118.06 14.1682 118.346 14.3316L117.978 16.1291L117.855 16.1699C117.59 16.0269 117.263 15.9044 116.691 15.9044C116.078 15.9044 115.323 16.2516 114.955 17.0482V23.1963H112.933V14.2295Z" fill="#242220"/>
<path d="M128.197 23.198H126.502V21.9929C125.869 22.8712 124.705 23.4635 123.091 23.4635C121.028 23.4635 119.68 22.1563 119.68 20.5018C119.68 18.6431 121.13 17.438 123.193 17.438C124.705 17.438 125.828 18.1324 126.277 18.5409V18.0916C126.277 16.5801 125.174 15.5792 123.745 15.5792C122.519 15.5792 121.886 15.8856 121.375 16.0694L120.885 14.558C121.437 14.3333 122.744 13.9452 123.969 13.9656C126.604 14.0065 128.238 15.6609 128.218 18.1529L128.197 23.198ZM126.277 19.889C125.849 19.4397 124.848 18.786 123.643 18.8065C122.56 18.8065 121.702 19.4601 121.702 20.3997C121.702 21.3392 122.601 21.9724 123.602 21.9724C124.786 21.9724 126.114 21.1146 126.277 20.1137V19.889Z" fill="#242220"/>
<path d="M139.683 14.2305L134.986 23.3607H134.271L129.573 14.2305H131.799L134.659 19.97L137.6 14.2305H139.683Z" fill="#242220"/>
<path d="M142.819 19.1734C142.9 20.4602 144.065 21.8082 146.026 21.8082C147.026 21.8082 148.068 21.3997 148.742 20.9912L149.498 22.4006C148.538 23.1155 147.047 23.4627 145.801 23.4627C142.717 23.4627 140.776 21.2772 140.776 18.6831C140.776 15.7419 143.023 13.9648 145.372 13.9648C147.721 13.9648 149.927 15.844 149.723 19.1734H142.819ZM147.721 17.764C147.66 16.3751 146.495 15.558 145.392 15.558C144.106 15.558 143.043 16.661 142.941 17.764H147.721Z" fill="#242220"/>
<path d="M154.468 23.1971H152.446V8.61328H154.468V23.1971Z" fill="#242220"/>
<path d="M25.9507 11.8349C25.0792 11.3447 23.7175 10.8238 22.669 10.8238C21.2732 10.8238 20.2588 11.4536 20.2588 12.4306C20.2588 13.4077 21.4468 14.0375 23.0536 14.6638C26.4409 15.9915 27.4179 17.5609 27.3498 19.3787C27.2783 21.9966 24.9396 23.5353 22.0766 23.4979C19.9456 23.4638 18.1311 22.5889 17.1881 21.823L18.2366 19.6579C19.04 20.2502 20.4698 20.9855 21.869 20.9855C23.1626 20.9855 24.5243 20.4953 24.5243 19.4128C24.5243 18.1906 22.8494 17.6664 21.103 16.897C18.8324 15.8485 17.4026 14.5923 17.4026 12.4613C17.4026 10.3302 19.183 8.30469 22.3966 8.30469C24.109 8.30469 26.063 9.10809 26.8324 9.49277L25.9609 11.8315L25.9507 11.8349Z" fill="#242220"/>
<path d="M31.4689 8.58984H34.2638V17.635C34.2638 19.555 35.6255 21.0222 37.3379 21.0222C39.0502 21.0222 40.4119 19.555 40.4119 17.635V8.58984H43.2408V17.669C43.2408 20.6715 41.2494 23.5005 37.3038 23.5005C33.3583 23.5005 31.4383 20.7056 31.4383 17.669L31.4723 8.58984H31.4689Z" fill="#242220"/>
<path d="M50.8493 18.6801V23.218H48.0544V8.72945C54.9685 7.50732 58.1447 9.84604 58.1447 13.4784C58.1447 16.8997 55.6289 18.8911 50.8459 18.6801H50.8493ZM50.8493 16.2018C54.0255 16.3754 55.2476 15.2928 55.2476 13.4784C55.2476 11.8375 53.9915 10.6835 50.8493 11.0682V16.2018Z" fill="#242220"/>
<path d="M71.2068 20.8452V23.2213H61.8826V8.58984H70.9958V10.966H64.6741V14.5984H69.8758V16.9745H64.6741V20.8145L71.2034 20.8486L71.2068 20.8452Z" fill="#242220"/>
<path d="M85.9779 20.2531C85.8042 20.2872 85.5932 20.3927 85.3855 20.4267C84.6536 20.5663 84.0919 20.2531 83.7106 19.4497L82.7336 17.4242L82.8051 17.3901C84.1668 16.6923 85.3889 15.191 85.3889 13.271C85.3889 9.67269 82.2127 7.54503 75.2987 8.73312V23.225H78.0936V18.1969C78.6859 18.2684 79.2476 18.231 79.8059 18.1969L81.0281 20.6072C82.0391 22.7382 82.9821 23.4701 84.6264 23.191C85.2562 23.0855 85.6749 22.9459 85.9881 22.7723V20.2565L85.9779 20.2531ZM78.1208 15.7493V11.0684C81.0893 10.6157 82.5191 11.6608 82.5191 13.2335C82.5191 14.9459 81.1574 16.0625 78.1208 15.7493Z" fill="#242220"/>
<path d="M11.8026 13.4962C12.126 13.4962 12.2792 13.8979 12.0341 14.1124L0.776191 23.8962C0.486829 24.1481 0.057893 23.8145 0.234914 23.4741L3.60513 16.8562H1.63066C1.36853 16.8562 1.19832 16.5805 1.31747 16.3456L5.43662 8.25705C5.49449 8.1379 5.61704 8.06641 5.74981 8.06641H12.3404C12.6366 8.06641 12.8 8.41705 12.6094 8.64173L8.53789 13.4928H11.8026V13.4962Z" fill="#FF0099"/>
<path d="M94.2094 0.046875H93.6987V31.9107H94.2094V0.046875Z" fill="#242220"/>
</g>
<defs>
<clipPath id="clip0_2900_65680">
<rect width="154.553" height="32" fill="white"/>
</clipPath>
</defs>
</svg>
