<svg width="63" height="58" xmlns="http://www.w3.org/2000/svg"><g fill="none" fill-rule="evenodd"><path stroke="#0B0B0C" stroke-width="2.64" d="M12.857 31.798L26.38 18.277l10.326 10.326 13.179-13.179"/><path d="M32.56 48.166l.06.001.062.002.061.003.062.003.06.004.061.005.06.006.06.006.06.008.06.007.06.009.06.01.06.01.058.01.059.011.058.013.058.012.058.014.058.014.057.015.058.015.056.017.057.017.056.017.056.018.056.02.055.019.055.02.055.02.054.022.054.022.054.023.053.023.053.024.053.024.052.026.052.025.052.027.05.026.051.028.05.028.05.029.05.029.05.03.049.03.048.03.048.032.047.032.048.033.047.033.046.033.046.034.045.035.045.035.045.036.044.036.044.036.043.037.043.038.042.038.041.039.042.04.04.039.041.04.04.04.04.041.038.042.039.042.037.042.038.043.037.043.036.044.036.044.035.045.035.045.034.045.034.046.033.046.032.047.033.047.031.047.03.048.031.048.03.05.03.048.028.05.028.05.027.05.027.05.026.051.026.051.025.052.024.052.024.052.023.053.023.053.021.053.021.054.021.054.02.054.02.055.018.055.018.055.017.055.016.056.016.056.015.056.015.057.014.057.013.057.012.057.012.058.01.058.011.058.01.058.008.058.008.059.007.059.007.06.006.058.005.06.004.06.003.06.003.06.002.06.001.06v.12l-.001.061-.002.06-.003.06-.003.06-.004.06-.005.06-.006.059-.007.059-.007.059-.008.059-.009.058-.009.058-.01.058-.011.058-.012.058-.012.057-.013.057-.014.057-.015.057-.015.056-.016.056-.016.056-.017.055-.018.055-.019.055-.02.055-.019.054-.02.054-.022.054-.021.053-.023.053-.023.053-.024.052-.024.052-.025.052-.026.05-.026.052-.027.05-.027.05-.028.05-.029.05-.029.049-.03.048-.03.049-.031.048-.031.047-.033.047-.032.047-.033.046-.034.046-.034.045-.035.045-.035.045-.036.044-.036.044-.037.043-.038.043-.037.042-.039.042-.039.042-.04.04-.039.041-.04.04-.041.04-.042.039-.041.039-.042.038-.043.037-.043.038-.044.036-.044.036-.045.036-.045.035-.045.035-.046.034-.046.033-.047.033-.048.033-.047.032-.048.031-.048.031-.05.03-.048.03-.05.03-.05.028-.05.028-.051.027-.051.027-.052.027-.052.025-.052.025-.053.025-.053.024-.053.023-.054.023-.054.022-.054.021-.055.021-.055.02-.055.02-.056.019-.056.018-.056.017-.056.017-.057.016-.058.016-.057.015-.058.014-.058.014-.058.012-.058.013-.059.011-.059.01-.06.01-.059.01-.06.009-.06.007-.06.007-.06.007-.06.006-.06.004-.061.005-.062.003-.06.003-.062.002h-.062l-.061.001h-.062l-.061-.001-.062-.002-.06-.003-.062-.003-.06-.005-.061-.004-.06-.006-.061-.007-.06-.007-.06-.007-.06-.009-.06-.01-.059-.01-.059-.01-.058-.011-.058-.013-.059-.012-.058-.014-.058-.014-.057-.015-.057-.016-.057-.016-.056-.017-.057-.017-.056-.018-.055-.02-.056-.019-.055-.02-.054-.02-.054-.022-.055-.022-.053-.023-.054-.023-.053-.024-.052-.025-.053-.025-.051-.025-.052-.027-.051-.027-.05-.027-.051-.028-.05-.029-.05-.029-.05-.03-.048-.03-.049-.03-.048-.032-.047-.032-.047-.033-.047-.033-.046-.033-.046-.034-.045-.035-.046-.035-.044-.036-.044-.036-.044-.036-.043-.038-.043-.037-.042-.038-.042-.039-.041-.04-.041-.039-.04-.04-.04-.04-.04-.041-.039-.042-.038-.042-.038-.042-.037-.043-.037-.043-.036-.044-.036-.044-.035-.045-.035-.045-.034-.045-.034-.046-.033-.046-.033-.047-.032-.047-.031-.047-.031-.048-.03-.049-.03-.048-.03-.05-.028-.049-.028-.05-.027-.05-.027-.05-.027-.051-.025-.051-.025-.052-.024-.052-.024-.052-.024-.053-.022-.053-.022-.053-.02-.054-.022-.054-.02-.054-.018-.055-.019-.055-.018-.055-.017-.055-.017-.056-.015-.056-.016-.056-.014-.057-.014-.057-.013-.057-.012-.057-.012-.058-.011-.058-.01-.058-.01-.058-.008-.058-.008-.06-.008-.058-.006-.06-.006-.059-.005-.059-.004-.06-.004-.06-.003-.06-.001-.06-.001-.06-.001-.06v-.061l.002-.06.001-.06.003-.06.004-.06.004-.06.005-.06.006-.059.006-.059.008-.059.008-.059.008-.058.01-.058.01-.058.011-.058.012-.058.012-.057.013-.057.014-.057.014-.057.015-.056.016-.056.017-.056.017-.055.018-.055.019-.055.019-.055.02-.054.02-.054.021-.054.022-.053.022-.053.024-.053.024-.052.024-.052.025-.052.025-.05.027-.052.027-.05.027-.05.028-.05.028-.05.03-.049.03-.049.03-.048.03-.048.032-.047.032-.047.033-.047.033-.046.034-.046.034-.045.035-.045.035-.045.036-.044.036-.044.037-.043.037-.043.038-.042.038-.042.04-.042.039-.04.04-.041.04-.04.04-.04.042-.039.042-.039.042-.038.043-.038.043-.037.044-.036.044-.036.045-.036.045-.035.045-.035.046-.034.046-.033.047-.033.047-.033.047-.032.049-.031.048-.031.049-.03.049-.03.05-.03.05-.028.05-.028.05-.028.052-.026.052-.027.051-.025.053-.026.052-.024.053-.024.054-.023.053-.023.055-.022.054-.021.054-.021.055-.02.056-.02.055-.019.056-.018.057-.017.056-.017.057-.017.057-.015.057-.015.058-.014.058-.014.059-.012.058-.013.058-.011.06-.01.059-.01.06-.01.059-.009.06-.007.06-.008.06-.006.06-.006.061-.005.061-.004.061-.003.061-.003.062-.002h.061l.062-.001h.061zm-.094 2.351h-.03l-.032.002-.03.001-.031.002-.03.002-.031.002-.03.003-.03.004-.03.003-.03.004-.03.004-.03.005-.03.005-.029.005-.029.006-.029.006-.03.006-.028.007-.028.007-.029.007-.028.008-.029.008-.028.009-.028.008-.027.01-.028.009-.028.01-.027.01-.027.01-.027.01-.027.012-.027.01-.026.012-.027.012-.026.013-.026.012-.026.013-.026.013-.025.013-.026.014-.025.014-.025.014-.025.015-.024.015-.025.015-.024.015-.024.016-.024.016-.024.017-.023.016-.023.017-.023.017-.023.017-.023.018-.022.018-.022.018-.022.019-.022.018-.021.02-.022.018-.02.02-.021.02-.021.02-.02.02-.02.02-.02.02-.02.021-.019.021-.019.022-.019.021-.018.022-.018.022-.018.022-.018.022-.018.023-.017.023-.017.023-.016.023-.017.023-.016.024-.015.024-.016.024-.015.024-.015.024-.014.025-.015.024-.014.025-.013.025-.014.026-.013.025-.013.025-.012.026-.012.026-.012.026-.012.026-.01.027-.012.026-.01.027-.01.027-.01.027-.01.027-.01.027-.008.028-.008.027-.009.028-.008.028-.007.028-.007.028-.007.028-.007.028-.006.029-.006.029-.005.028-.005.03-.005.028-.004.03-.004.029-.004.03-.003.029-.003.03-.002.03-.003.03-.001.03-.002.03v.03l-.001.03v.092l.001.031.002.03.001.03.003.03.002.03.003.03.003.03.004.029.004.03.004.029.005.029.005.029.005.028.006.029.006.028.007.029.007.028.007.028.007.028.008.028.009.028.008.027.009.028.01.027.009.027.01.027.01.027.01.027.011.026.011.027.012.026.012.026.012.026.012.025.013.026.013.025.014.026.013.025.014.024.015.025.014.025.015.024.015.024.016.024.015.024.016.024.017.023.016.023.017.023.017.023.018.022.018.023.018.022.018.022.018.022.02.021.018.022.02.02.02.021.019.021.02.02.02.02.02.02.021.02.021.02.022.019.021.019.022.018.022.019.022.018.022.018.023.017.023.018.023.017.023.017.023.016.024.017.024.016.024.015.024.016.025.015.024.015.025.014.025.015.025.014.026.014.025.013.026.013.026.013.026.012.026.013.027.012.026.011.027.011.027.011.027.011.027.01.027.01.028.01.027.01.028.009.028.008.029.009.028.008.028.007.028.008.03.007.028.007.029.006.029.006.03.006.029.005.03.005.029.005.03.004.03.004.03.003.03.004.03.002.03.003.031.002.03.002.031.001.031.001h.125l.031-.001.031-.001.03-.002.031-.002.03-.003.031-.002.03-.004.03-.003.03-.004.03-.004.03-.005.029-.005.03-.005.029-.006.029-.006.029-.006.029-.007.028-.007.029-.008.028-.007.028-.008.028-.009.028-.008.028-.01.028-.009.027-.01.028-.01.027-.01.027-.01.027-.012.026-.01.027-.012.026-.012.027-.013.026-.012.026-.013.025-.013.026-.013.025-.014.025-.014.025-.015.025-.014.025-.015.024-.015.025-.016.024-.015.024-.016.023-.017.024-.016.023-.017.023-.017.023-.018.022-.017.023-.018.022-.018.022-.019.021-.018.022-.02.021-.018.021-.02.02-.02.022-.02.02-.02.02-.02.02-.02.02-.021.019-.021.018-.022.02-.021.018-.022.018-.022.018-.022.018-.023.017-.022.018-.023.016-.023.017-.023.016-.023.016-.024.016-.024.015-.024.016-.024.015-.024.014-.025.014-.025.014-.024.014-.025.013-.026.014-.025.012-.026.013-.025.012-.026.012-.026.011-.026.011-.027.011-.026.01-.027.011-.027.01-.027.01-.027.009-.027.008-.028.01-.027.007-.028.008-.028.008-.028.007-.028.007-.028.006-.029.006-.028.006-.029.006-.028.005-.03.004-.028.005-.03.004-.029.003-.03.004-.03.003-.029.002-.03.002-.03.002-.03.002-.03v-.03l.001-.03v-.092l-.001-.031-.002-.03-.002-.03-.002-.03-.002-.03-.003-.03-.004-.03-.003-.03-.004-.028-.005-.03-.004-.029-.005-.029-.006-.028-.006-.03-.006-.028-.006-.028-.007-.028-.007-.028-.008-.028-.008-.028-.008-.028-.009-.027-.008-.028-.01-.027-.01-.027-.009-.027-.01-.027-.01-.027-.012-.026-.01-.027-.012-.026-.012-.026-.012-.026-.013-.026-.012-.025-.014-.025-.013-.026-.014-.025-.014-.025-.014-.024-.014-.025-.015-.024-.016-.024-.015-.024-.016-.024-.016-.024-.016-.023-.017-.023-.017-.023-.017-.023-.017-.023-.018-.022-.018-.022-.018-.022-.019-.022-.019-.021-.018-.022-.02-.02-.02-.022-.02-.02-.02-.02-.02-.02-.02-.02-.02-.02-.022-.02-.021-.019-.022-.019-.021-.018-.022-.019-.022-.018-.023-.018-.022-.018-.023-.017-.023-.017-.023-.017-.024-.016-.023-.017-.024-.016-.024-.016-.025-.015-.024-.015-.025-.015-.025-.015-.025-.014-.025-.014-.025-.014-.026-.013-.025-.013-.026-.013-.026-.012-.027-.013-.026-.012-.027-.011-.026-.011-.027-.011-.027-.011-.027-.01-.028-.01-.027-.01-.028-.01-.028-.009-.028-.008-.028-.009-.028-.008-.029-.008-.028-.007-.028-.007-.03-.007-.028-.006-.03-.006-.029-.006-.03-.005-.028-.005-.03-.005-.03-.004-.03-.004-.03-.003-.03-.004-.03-.003-.03-.002-.031-.002-.031-.002-.03-.001-.032-.001h-.094z" fill="#0B0B0C"/><path fill="#0B0B0C" d="M31.194 50.107h2.64V41.64h-2.64z"/><path d="M3.97 39.328c0 1.767 1.393 3.2 3.111 3.2h48.78c1.717 0 3.11-1.433 3.11-3.2V3.844h-55v35.484z" stroke="#0B0B0C" stroke-width="2.64"/><path d="M26.747 15.306c1.853 0 3.357 1.476 3.357 3.293 0 1.817-1.504 3.292-3.357 3.292-1.852 0-3.357-1.475-3.357-3.292 0-1.817 1.505-3.293 3.357-3.293zm10.547 9.404c1.853 0 3.357 1.475 3.357 3.292 0 1.817-1.504 3.292-3.357 3.292-1.853 0-3.357-1.475-3.357-3.292 0-1.817 1.504-3.292 3.357-3.292zm12.469-12.232c1.852 0 3.357 1.476 3.357 3.293 0 1.817-1.505 3.292-3.357 3.292-1.853 0-3.357-1.475-3.357-3.292 0-1.817 1.504-3.293 3.357-3.293zM13.316 28.469c1.853 0 3.357 1.475 3.357 3.292 0 1.817-1.504 3.292-3.357 3.292-1.853 0-3.357-1.475-3.357-3.292 0-1.817 1.504-3.292 3.357-3.292z" fill="#0B0B0C"/><path fill="#0B0B0C" d="M49.765 34.4h2.64v-2.64h-2.64zM9.96 16.062h2.64v-2.64H9.96z"/><path fill="#0B0B0C" fill-rule="nonzero" d="M.479.475h62v4.701h-62z"/><path d="M-8-13h78.4v78.4H-8z"/></g></svg>
