<svg width="55" height="55" viewBox="0 0 55 55" fill="none" xmlns="http://www.w3.org/2000/svg">
<path fill-rule="evenodd" clip-rule="evenodd" d="M18.3338 13.1771C17.3942 13.1771 16.615 12.398 16.615 11.4584V9.82016C11.3336 10.3412 8.70401 13.3955 8.59715 19.1122H46.4029C46.296 13.3956 43.6665 10.3413 38.3853 9.82019V11.4584C38.3853 12.398 37.6061 13.1771 36.6665 13.1771C35.7269 13.1771 34.9477 12.398 34.9477 11.4584V9.73965H20.0525V11.4584C20.0525 12.398 19.2734 13.1771 18.3338 13.1771ZM16.615 6.37369V4.58337C16.615 3.64379 17.3942 2.86462 18.3338 2.86462C19.2734 2.86462 20.0525 3.64379 20.0525 4.58337V6.30215H34.9477V4.58337C34.9477 3.64379 35.7269 2.86462 36.6665 2.86462C37.6061 2.86462 38.3853 3.64379 38.3853 4.58337V6.37371C45.687 6.9996 49.8438 11.7054 49.8438 19.4792V38.9584C49.8438 47.323 45.0313 52.1355 36.6667 52.1355H18.3333C9.96875 52.1355 5.15625 47.323 5.15625 38.9584V19.4792C5.15625 11.7053 9.31313 6.99948 16.615 6.37369ZM46.4063 22.5497H8.59375V38.9584C8.59375 45.5126 11.7792 48.698 18.3333 48.698H36.6667C43.2209 48.698 46.4063 45.5126 46.4063 38.9584V22.5497Z" fill="url(#paint0_linear_5220_3027)"/>
<path d="M22.916 29.7917H32.0827L26.2494 41.25" stroke="url(#paint1_linear_5220_3027)" stroke-width="3" stroke-linecap="round" stroke-linejoin="round"/>
<defs>
<linearGradient id="paint0_linear_5220_3027" x1="11.3494" y1="-3.29424" x2="54.6693" y2="7.042" gradientUnits="userSpaceOnUse">
<stop stop-color="#5667FF"/>
<stop offset="1" stop-color="#8699FF"/>
</linearGradient>
<linearGradient id="paint1_linear_5220_3027" x1="24.1864" y1="28.3594" x2="33.1801" y2="30.2522" gradientUnits="userSpaceOnUse">
<stop stop-color="#5667FF"/>
<stop offset="1" stop-color="#8699FF"/>
</linearGradient>
</defs>
</svg>
